<svg width="10" height="12" viewBox="0 0 10 12" fill="none" xmlns="http://www.w3.org/2000/svg">
<path d="M0.666667 10.6667C0.666667 11.4 1.26667 12 2 12H7.33333C8.06667 12 8.66667 11.4 8.66667 10.6667V2.66667H0.666667V10.6667ZM8.66667 0.666667H7L6.52667 0.193333C6.40667 0.0733333 6.23333 0 6.06 0H3.27333C3.1 0 2.92667 0.0733333 2.80667 0.193333L2.33333 0.666667H0.666667C0.3 0.666667 0 0.966667 0 1.33333C0 1.7 0.3 2 0.666667 2H8.66667C9.03333 2 9.33333 1.7 9.33333 1.33333C9.33333 0.966667 9.03333 0.666667 8.66667 0.666667Z" fill="white"/>
</svg>
